<svg viewBox="0 0 330 200" xmlns="http://www.w3.org/2000/svg"><g><g><g><g><g><line x1="41.149001121520996" y1="176.5999994277954" x2="36.149001121520996" y2="176.5999994277954" style="visibility: inherit;" fill="rgb(0, 0, 0)" stroke="rgb(204, 204, 204)" stroke-width="1px"></line><line x1="41.149001121520996" y1="154.52499949932098" x2="36.149001121520996" y2="154.52499949932098" style="visibility: inherit;" fill="rgb(0, 0, 0)" stroke="rgb(204, 204, 204)" stroke-width="1px"></line><line x1="41.149001121520996" y1="132.44999957084656" x2="36.149001121520996" y2="132.44999957084656" style="visibility: inherit;" fill="rgb(0, 0, 0)" stroke="rgb(204, 204, 204)" stroke-width="1px"></line><line x1="41.149001121520996" y1="110.37499964237213" x2="36.149001121520996" y2="110.37499964237213" style="visibility: inherit;" fill="rgb(0, 0, 0)" stroke="rgb(204, 204, 204)" stroke-width="1px"></line><line x1="41.149001121520996" y1="88.2999997138977" x2="36.149001121520996" y2="88.2999997138977" style="visibility: inherit;" fill="rgb(0, 0, 0)" stroke="rgb(204, 204, 204)" stroke-width="1px"></line><line x1="41.149001121520996" y1="66.22499978542328" x2="36.149001121520996" y2="66.22499978542328" style="visibility: inherit;" fill="rgb(0, 0, 0)" stroke="rgb(204, 204, 204)" stroke-width="1px"></line><line x1="41.149001121520996" y1="44.149999856948874" x2="36.149001121520996" y2="44.149999856948874" style="visibility: inherit;" fill="rgb(0, 0, 0)" stroke="rgb(204, 204, 204)" stroke-width="1px"></line><line x1="41.149001121520996" y1="22.074999928474448" x2="36.149001121520996" y2="22.074999928474448" style="visibility: inherit;" fill="rgb(0, 0, 0)" stroke="rgb(204, 204, 204)" stroke-width="1px"></line><line x1="41.149001121520996" y1="0" x2="36.149001121520996" y2="0" style="visibility: inherit;" fill="rgb(0, 0, 0)" stroke="rgb(204, 204, 204)" stroke-width="1px"></line></g><g transform="translate(31.149001121520996, 0)"><text style="text-anchor: end; visibility: hidden; font-family: Roboto, sans-serif; font-size: 12px; font-weight: 200;" x="0" y="176.5999994277954" dx="0em" dy="0.3em" fill="rgb(33, 33, 33)" stroke="none" stroke-width="1px">0</text><text style="text-anchor: end; visibility: inherit; font-family: Roboto, sans-serif; font-size: 12px; font-weight: 200;" x="0" y="154.52499949932098" dx="0em" dy="0.3em" fill="rgb(33, 33, 33)" stroke="none" stroke-width="1px">0.2</text><text style="text-anchor: end; visibility: hidden; font-family: Roboto, sans-serif; font-size: 12px; font-weight: 200;" x="0" y="132.44999957084656" dx="0em" dy="0.3em" fill="rgb(33, 33, 33)" stroke="none" stroke-width="1px">0.4</text><text style="text-anchor: end; visibility: inherit; font-family: Roboto, sans-serif; font-size: 12px; font-weight: 200;" x="0" y="110.37499964237213" dx="0em" dy="0.3em" fill="rgb(33, 33, 33)" stroke="none" stroke-width="1px">0.6</text><text style="text-anchor: end; visibility: hidden; font-family: Roboto, sans-serif; font-size: 12px; font-weight: 200;" x="0" y="88.2999997138977" dx="0em" dy="0.3em" fill="rgb(33, 33, 33)" stroke="none" stroke-width="1px">0.8</text><text style="text-anchor: end; visibility: inherit; font-family: Roboto, sans-serif; font-size: 12px; font-weight: 200;" x="0" y="66.22499978542328" dx="0em" dy="0.3em" fill="rgb(33, 33, 33)" stroke="none" stroke-width="1px">1</text><text style="text-anchor: end; visibility: hidden; font-family: Roboto, sans-serif; font-size: 12px; font-weight: 200;" x="0" y="44.149999856948874" dx="0em" dy="0.3em" fill="rgb(33, 33, 33)" stroke="none" stroke-width="1px">1.2</text><text style="text-anchor: end; visibility: inherit; font-family: Roboto, sans-serif; font-size: 12px; font-weight: 200;" x="0" y="22.074999928474448" dx="0em" dy="0.3em" fill="rgb(33, 33, 33)" stroke="none" stroke-width="1px">1.4</text><text style="text-anchor: end; visibility: hidden; font-family: Roboto, sans-serif; font-size: 12px; font-weight: 200;" x="0" y="0" dx="0em" dy="0.3em" fill="rgb(33, 33, 33)" stroke="none" stroke-width="1px">1.6</text></g><line x1="41.149001121520996" y1="0" x2="41.149001121520996" y2="176.5999994277954" fill="rgb(0, 0, 0)" stroke="rgb(204, 204, 204)" stroke-width="1px"></line></g></g><g transform="translate(41, 0)" clip-path="url(#clip_0)"><clipPath id="clip_0"><rect width="288" height="176"></rect></clipPath><g><g><g><line x1="0" y1="0" x2="0" y2="176.5999994277954" fill="rgb(0, 0, 0)" stroke="rgb(66, 66, 66)" stroke-width="1px" opacity="0.25"></line><line x1="26.259181716225363" y1="0" x2="26.259181716225363" y2="176.5999994277954" fill="rgb(0, 0, 0)" stroke="rgb(66, 66, 66)" stroke-width="1px" opacity="0.25"></line><line x1="52.51836343245073" y1="0" x2="52.51836343245073" y2="176.5999994277954" fill="rgb(0, 0, 0)" stroke="rgb(66, 66, 66)" stroke-width="1px" opacity="0.25"></line><line x1="78.77754514867608" y1="0" x2="78.77754514867608" y2="176.5999994277954" fill="rgb(0, 0, 0)" stroke="rgb(66, 66, 66)" stroke-width="1px" opacity="0.25"></line><line x1="105.03672686490145" y1="0" x2="105.03672686490145" y2="176.5999994277954" fill="rgb(0, 0, 0)" stroke="rgb(66, 66, 66)" stroke-width="1px" opacity="0.25"></line><line x1="131.2959085811268" y1="0" x2="131.2959085811268" y2="176.5999994277954" fill="rgb(0, 0, 0)" stroke="rgb(66, 66, 66)" stroke-width="1px" opacity="0.25"></line><line x1="157.55509029735217" y1="0" x2="157.55509029735217" y2="176.5999994277954" fill="rgb(0, 0, 0)" stroke="rgb(66, 66, 66)" stroke-width="1px" opacity="0.25"></line><line x1="183.81427201357755" y1="0" x2="183.81427201357755" y2="176.5999994277954" fill="rgb(0, 0, 0)" stroke="rgb(66, 66, 66)" stroke-width="1px" opacity="0.25"></line><line x1="210.0734537298029" y1="0" x2="210.0734537298029" y2="176.5999994277954" fill="rgb(0, 0, 0)" stroke="rgb(66, 66, 66)" stroke-width="1px" opacity="0.25"></line><line x1="236.3326354460283" y1="0" x2="236.3326354460283" y2="176.5999994277954" fill="rgb(0, 0, 0)" stroke="rgb(66, 66, 66)" stroke-width="1px" opacity="0.25"></line><line x1="262.5918171622536" y1="0" x2="262.5918171622536" y2="176.5999994277954" fill="rgb(0, 0, 0)" stroke="rgb(66, 66, 66)" stroke-width="1px" opacity="0.25"></line><line x1="288.850998878479" y1="0" x2="288.850998878479" y2="176.5999994277954" fill="rgb(0, 0, 0)" stroke="rgb(66, 66, 66)" stroke-width="1px" opacity="0.25"></line></g><g><line x1="0" y1="176.5999994277954" x2="288.850998878479" y2="176.5999994277954" fill="rgb(0, 0, 0)" stroke="rgb(66, 66, 66)" stroke-width="1px" opacity="0.25"></line><line x1="0" y1="154.52499949932098" x2="288.850998878479" y2="154.52499949932098" fill="rgb(0, 0, 0)" stroke="rgb(66, 66, 66)" stroke-width="1px" opacity="0.25"></line><line x1="0" y1="132.44999957084656" x2="288.850998878479" y2="132.44999957084656" fill="rgb(0, 0, 0)" stroke="rgb(66, 66, 66)" stroke-width="1px" opacity="0.25"></line><line x1="0" y1="110.37499964237213" x2="288.850998878479" y2="110.37499964237213" fill="rgb(0, 0, 0)" stroke="rgb(66, 66, 66)" stroke-width="1px" opacity="0.25"></line><line x1="0" y1="88.2999997138977" x2="288.850998878479" y2="88.2999997138977" fill="rgb(0, 0, 0)" stroke="rgb(66, 66, 66)" stroke-width="1px" opacity="0.25"></line><line x1="0" y1="66.22499978542328" x2="288.850998878479" y2="66.22499978542328" fill="rgb(0, 0, 0)" stroke="rgb(66, 66, 66)" stroke-width="1px" opacity="0.25"></line><line x1="0" y1="44.149999856948874" x2="288.850998878479" y2="44.149999856948874" fill="rgb(0, 0, 0)" stroke="rgb(66, 66, 66)" stroke-width="1px" opacity="0.25"></line><line x1="0" y1="22.074999928474448" x2="288.850998878479" y2="22.074999928474448" fill="rgb(0, 0, 0)" stroke="rgb(66, 66, 66)" stroke-width="1px" opacity="0.25"></line><line x1="0" y1="0" x2="288.850998878479" y2="0" fill="rgb(0, 0, 0)" stroke="rgb(66, 66, 66)" stroke-width="1px" opacity="0.25"></line></g></g></g><g><g><line x1="0" y1="176.5999994277954" x2="288.850998878479" y2="176.5999994277954" fill="rgb(0, 0, 0)" stroke="rgb(153, 153, 153)" stroke-width="1.5px"></line></g></g><g><g><line x1="0" y1="0" x2="0" y2="176.5999994277954" fill="rgb(0, 0, 0)" stroke="rgb(153, 153, 153)" stroke-width="1.5px"></line></g></g><g><g><g><g><g><path style="fill: none;" stroke="rgb(0, 119, 187)" stroke-width="2px" d="M26.259181716225363,139.6225085189999L52.51836343245073,155.53658811681032L78.77754514867608,159.64762234592638L105.03672686490145,161.68275896636564L131.2959085811268,163.52894325039802L157.55509029735217,164.05350228459562L183.81427201357755,165.0195794816025L210.0734537298029,166.03986568445268L236.3326354460283,166.76738263127223L262.5918171622536,167.17942748942843" fill="none"></path></g><g><path style="fill: none;" stroke="rgb(255, 112, 67)" stroke-width="2px" d="M26.259181716225363,140.2348624752053L52.51836343245073,154.62410809142068L78.77754514867608,158.73104204439275L105.03672686490145,160.3822674904226L131.2959085811268,162.1677790360622L157.55509029735217,163.0606573401988L183.81427201357755,163.79362487472036L210.0734537298029,164.83457775221436L236.3326354460283,165.70286426778105L262.5918171622536,166.05015420327283" fill="none"></path></g><g><path style="fill: none;" stroke="rgb(187, 187, 187)" stroke-width="2px" d="M26.259181716225363,118.57739795917968L52.51836343245073,148.11015908337902L78.77754514867608,156.0186378300223L105.03672686490145,159.5652237360038L131.2959085811268,162.20404666111267L157.55509029735217,163.52976067408173L183.81427201357755,165.08990834564358L210.0734537298029,165.85057535897732L236.3326354460283,166.5328774275482L262.5918171622536,167.1538866999219" fill="none"></path></g><g><path style="fill: none;" stroke="rgb(0, 153, 136)" stroke-width="2px" d="M26.259181716225363,125.37143217607093L52.51836343245073,150.10616298408559L78.77754514867608,156.71633114775292L105.03672686490145,160.32526986917534L131.2959085811268,161.7833777363857L157.55509029735217,163.08070148996478L183.81427201357755,164.49436585057163L210.0734537298029,165.80932013368354L236.3326354460283,166.0923197786852L262.5918171622536,166.9794728276043" fill="none"></path></g><g><path style="fill: none;" stroke="rgb(238, 51, 119)" stroke-width="2px" d="M26.259181716225363,51.623819398505816L52.51836343245073,104.01398682271156L78.77754514867608,124.35434001103528L105.03672686490145,134.30228755917008L131.2959085811268,140.96769514304262L157.55509029735217,146.0297746903778L183.81427201357755,150.11779770267464L210.0734537298029,153.08104408143421L236.3326354460283,155.4889341252357L262.5918171622536,157.3453394947461" fill="none"></path></g><g><path style="fill: none;" stroke="rgb(51, 187, 238)" stroke-width="2px" d="M26.259181716225363,70.45316244036891L52.51836343245073,118.62168028364833L78.77754514867608,131.649683561534L105.03672686490145,139.12210706843754L131.2959085811268,144.74011037763404L157.55509029735217,149.27465231070875L183.81427201357755,153.07448331066072L210.0734537298029,155.74567917413376L236.3326354460283,157.70944335844476L262.5918171622536,159.3573135845253" fill="none"></path></g><g><path style="fill: none;" stroke="rgb(204, 51, 17)" stroke-width="2px" d="M26.259181716225363,18.030278332225777L52.51836343245073,27.85542811964602L78.77754514867608,41.22354543859258L105.03672686490145,56.70372766361103L131.2959085811268,72.85466440854135L157.55509029735217,87.3573329062011L183.81427201357755,98.20024590264686L210.0734537298029,105.71166232845185L236.3326354460283,111.59079056435283L262.5918171622536,116.1961588879562" fill="none"></path></g><g><path style="fill: none;" stroke="rgb(0, 119, 187)" stroke-width="2px" d="M26.259181716225363,21.276433896625647L52.51836343245073,38.71857769759016L78.77754514867608,59.823371699332796L105.03672686490145,79.98046080036468L131.2959085811268,95.96224182894704L157.55509029735217,107.83369421143209L183.81427201357755,115.68748780704811L210.0734537298029,120.89430891145282L236.3326354460283,124.44991443812165L262.5918171622536,127.42995500850023" fill="none"></path></g><g><path style="fill: none;" stroke="rgb(255, 112, 67)" stroke-width="2px" d="M26.259181716225363,139.706211388442L52.51836343245073,155.29620305459662L78.77754514867608,160.1114699909132L105.03672686490145,162.47685235844472L131.2959085811268,163.4632985365607L157.55509029735217,164.4966248675326L183.81427201357755,165.68006275220867L210.0734537298029,166.14281254949148L236.3326354460283,166.83536201899093L262.5918171622536,167.18997176153394" fill="none"></path></g><g><path style="fill: none;" stroke="rgb(187, 187, 187)" stroke-width="2px" d="M26.259181716225363,137.3406497469034L52.51836343245073,153.2580401573403L78.77754514867608,158.06151941651132L105.03672686490145,160.3737462185807L131.2959085811268,162.61111707675084L157.55509029735217,163.48510582151576L183.81427201357755,164.12558770496312L210.0734537298029,165.13534114871743L236.3326354460283,165.77368572416276L262.5918171622536,166.3478074424601" fill="none"></path></g><g><path style="fill: none;" stroke="rgb(0, 153, 136)" stroke-width="2px" d="M26.259181716225363,133.6160891591973L52.51836343245073,155.50659672672393L78.77754514867608,160.43460563220103L105.03672686490145,163.38401666281655L131.2959085811268,164.3665122339138L157.55509029735217,165.7662984837694L183.81427201357755,166.79863798534444L210.0734537298029,167.15543191028584L236.3326354460283,168.13255008352797L262.5918171622536,167.9850528053677" fill="none"></path></g><g><path style="fill: none;" stroke="rgb(238, 51, 119)" stroke-width="2px" d="M26.259181716225363,137.7935222042814L52.51836343245073,156.12885845007384L78.77754514867608,160.61736972593175L105.03672686490145,162.75736519336627L131.2959085811268,164.14503893473318L157.55509029735217,165.58918727776702L183.81427201357755,166.30430718028845L210.0734537298029,167.07327425120766L236.3326354460283,167.04736504539295L262.5918171622536,167.8899438328135" fill="none"></path></g><g><path style="fill: none;" stroke="rgb(51, 187, 238)" stroke-width="2px" d="M26.259181716225363,88.02042305113065L52.51836343245073,130.4588074502791L78.77754514867608,140.51031287532092L105.03672686490145,146.33762598902385L131.2959085811268,150.5344798366383L157.55509029735217,153.50748266870156L183.81427201357755,155.7406858173856L210.0734537298029,157.5158882852593L236.3326354460283,159.17914318163693L262.5918171622536,160.15275893287804" fill="none"></path></g><g><path style="fill: none;" stroke="rgb(204, 51, 17)" stroke-width="2px" d="M26.259181716225363,103.47959238885852L52.51836343245073,135.69913799157L78.77754514867608,144.2024824327906L105.03672686490145,149.60941938115428L131.2959085811268,153.31839957739956L157.55509029735217,155.94432135286007L183.81427201357755,157.99623900719303L210.0734537298029,159.68102816572593L236.3326354460283,160.79190366249264L262.5918171622536,161.91709805380788" fill="none"></path></g><g><path style="fill: none;" stroke="rgb(0, 119, 187)" stroke-width="2px" d="M26.259181716225363,26.136463414384025L52.51836343245073,50.216837517631404L78.77754514867608,71.06454272490274L105.03672686490145,86.954114414642L131.2959085811268,97.88495391034846L157.55509029735217,105.90459405440163L183.81427201357755,111.7800973369848L210.0734537298029,116.30562458351912L236.3326354460283,120.18074573230496L262.5918171622536,123.15769752667134" fill="none"></path></g><g><path style="fill: none;" stroke="rgb(255, 112, 67)" stroke-width="2px" d="M26.259181716225363,35.60619672622933L52.51836343245073,72.12746982599145L78.77754514867608,94.64883769034603L105.03672686490145,107.60554583373951L131.2959085811268,115.49776656606946L157.55509029735217,120.71106127131762L183.81427201357755,124.59298496407916L210.0734537298029,127.06571956754864L236.3326354460283,129.3874594050038L262.5918171622536,131.34052635865277" fill="none"></path></g></g></g></g></g></g><g transform="translate(41, 176)" clip-path="url(#clip_1)"><clipPath id="clip_1"><rect width="288" height="23"></rect></clipPath><g><g><line x1="0" y1="0" x2="0" y2="5" style="visibility: inherit;" fill="rgb(0, 0, 0)" stroke="rgb(204, 204, 204)" stroke-width="1px"></line><line x1="26.259181716225363" y1="0" x2="26.259181716225363" y2="5" style="visibility: inherit;" fill="rgb(0, 0, 0)" stroke="rgb(204, 204, 204)" stroke-width="1px"></line><line x1="52.51836343245073" y1="0" x2="52.51836343245073" y2="5" style="visibility: inherit;" fill="rgb(0, 0, 0)" stroke="rgb(204, 204, 204)" stroke-width="1px"></line><line x1="78.77754514867608" y1="0" x2="78.77754514867608" y2="5" style="visibility: inherit;" fill="rgb(0, 0, 0)" stroke="rgb(204, 204, 204)" stroke-width="1px"></line><line x1="105.03672686490145" y1="0" x2="105.03672686490145" y2="5" style="visibility: inherit;" fill="rgb(0, 0, 0)" stroke="rgb(204, 204, 204)" stroke-width="1px"></line><line x1="131.2959085811268" y1="0" x2="131.2959085811268" y2="5" style="visibility: inherit;" fill="rgb(0, 0, 0)" stroke="rgb(204, 204, 204)" stroke-width="1px"></line><line x1="157.55509029735217" y1="0" x2="157.55509029735217" y2="5" style="visibility: inherit;" fill="rgb(0, 0, 0)" stroke="rgb(204, 204, 204)" stroke-width="1px"></line><line x1="183.81427201357755" y1="0" x2="183.81427201357755" y2="5" style="visibility: inherit;" fill="rgb(0, 0, 0)" stroke="rgb(204, 204, 204)" stroke-width="1px"></line><line x1="210.0734537298029" y1="0" x2="210.0734537298029" y2="5" style="visibility: inherit;" fill="rgb(0, 0, 0)" stroke="rgb(204, 204, 204)" stroke-width="1px"></line><line x1="236.3326354460283" y1="0" x2="236.3326354460283" y2="5" style="visibility: inherit;" fill="rgb(0, 0, 0)" stroke="rgb(204, 204, 204)" stroke-width="1px"></line><line x1="262.5918171622536" y1="0" x2="262.5918171622536" y2="5" style="visibility: inherit;" fill="rgb(0, 0, 0)" stroke="rgb(204, 204, 204)" stroke-width="1px"></line><line x1="288.850998878479" y1="0" x2="288.850998878479" y2="5" style="visibility: inherit;" fill="rgb(0, 0, 0)" stroke="rgb(204, 204, 204)" stroke-width="1px"></line></g><g transform="translate(0, 8)"><text style="text-anchor: middle; visibility: hidden; font-family: Roboto, sans-serif; font-size: 12px; font-weight: 200;" x="0" y="0" dx="0em" dy="0.95em" fill="rgb(33, 33, 33)" stroke="none" stroke-width="1px">0</text><text style="text-anchor: middle; visibility: inherit; font-family: Roboto, sans-serif; font-size: 12px; font-weight: 200;" x="26.259181716225363" y="0" dx="0em" dy="0.95em" fill="rgb(33, 33, 33)" stroke="none" stroke-width="1px">1</text><text style="text-anchor: middle; visibility: inherit; font-family: Roboto, sans-serif; font-size: 12px; font-weight: 200;" x="52.51836343245073" y="0" dx="0em" dy="0.95em" fill="rgb(33, 33, 33)" stroke="none" stroke-width="1px">2</text><text style="text-anchor: middle; visibility: inherit; font-family: Roboto, sans-serif; font-size: 12px; font-weight: 200;" x="78.77754514867608" y="0" dx="0em" dy="0.95em" fill="rgb(33, 33, 33)" stroke="none" stroke-width="1px">3</text><text style="text-anchor: middle; visibility: inherit; font-family: Roboto, sans-serif; font-size: 12px; font-weight: 200;" x="105.03672686490145" y="0" dx="0em" dy="0.95em" fill="rgb(33, 33, 33)" stroke="none" stroke-width="1px">4</text><text style="text-anchor: middle; visibility: inherit; font-family: Roboto, sans-serif; font-size: 12px; font-weight: 200;" x="131.2959085811268" y="0" dx="0em" dy="0.95em" fill="rgb(33, 33, 33)" stroke="none" stroke-width="1px">5</text><text style="text-anchor: middle; visibility: inherit; font-family: Roboto, sans-serif; font-size: 12px; font-weight: 200;" x="157.55509029735217" y="0" dx="0em" dy="0.95em" fill="rgb(33, 33, 33)" stroke="none" stroke-width="1px">6</text><text style="text-anchor: middle; visibility: inherit; font-family: Roboto, sans-serif; font-size: 12px; font-weight: 200;" x="183.81427201357755" y="0" dx="0em" dy="0.95em" fill="rgb(33, 33, 33)" stroke="none" stroke-width="1px">7</text><text style="text-anchor: middle; visibility: inherit; font-family: Roboto, sans-serif; font-size: 12px; font-weight: 200;" x="210.0734537298029" y="0" dx="0em" dy="0.95em" fill="rgb(33, 33, 33)" stroke="none" stroke-width="1px">8</text><text style="text-anchor: middle; visibility: inherit; font-family: Roboto, sans-serif; font-size: 12px; font-weight: 200;" x="236.3326354460283" y="0" dx="0em" dy="0.95em" fill="rgb(33, 33, 33)" stroke="none" stroke-width="1px">9</text><text style="text-anchor: middle; visibility: inherit; font-family: Roboto, sans-serif; font-size: 12px; font-weight: 200;" x="262.5918171622536" y="0" dx="0em" dy="0.95em" fill="rgb(33, 33, 33)" stroke="none" stroke-width="1px">10</text><text style="text-anchor: middle; visibility: hidden; font-family: Roboto, sans-serif; font-size: 12px; font-weight: 200;" x="288.850998878479" y="0" dx="0em" dy="0.95em" fill="rgb(33, 33, 33)" stroke="none" stroke-width="1px">11</text></g><line x1="0" y1="0" x2="288.850998878479" y2="0" fill="rgb(0, 0, 0)" stroke="rgb(204, 204, 204)" stroke-width="1px"></line></g></g></g></g></svg>