<svg viewBox="0 0 330 200" xmlns="http://www.w3.org/2000/svg"><g><g><g><g><g><line x1="51.53200149536133" y1="176.5999994277954" x2="46.53200149536133" y2="176.5999994277954" style="visibility: inherit;" fill="rgb(0, 0, 0)" stroke="rgb(204, 204, 204)" stroke-width="1px"></line><line x1="51.53200149536133" y1="154.52499949932098" x2="46.53200149536133" y2="154.52499949932098" style="visibility: inherit;" fill="rgb(0, 0, 0)" stroke="rgb(204, 204, 204)" stroke-width="1px"></line><line x1="51.53200149536133" y1="132.44999957084656" x2="46.53200149536133" y2="132.44999957084656" style="visibility: inherit;" fill="rgb(0, 0, 0)" stroke="rgb(204, 204, 204)" stroke-width="1px"></line><line x1="51.53200149536133" y1="110.37499964237212" x2="46.53200149536133" y2="110.37499964237212" style="visibility: inherit;" fill="rgb(0, 0, 0)" stroke="rgb(204, 204, 204)" stroke-width="1px"></line><line x1="51.53200149536133" y1="88.29999971389769" x2="46.53200149536133" y2="88.29999971389769" style="visibility: inherit;" fill="rgb(0, 0, 0)" stroke="rgb(204, 204, 204)" stroke-width="1px"></line><line x1="51.53200149536133" y1="66.22499978542328" x2="46.53200149536133" y2="66.22499978542328" style="visibility: inherit;" fill="rgb(0, 0, 0)" stroke="rgb(204, 204, 204)" stroke-width="1px"></line><line x1="51.53200149536133" y1="44.14999985694885" x2="46.53200149536133" y2="44.14999985694885" style="visibility: inherit;" fill="rgb(0, 0, 0)" stroke="rgb(204, 204, 204)" stroke-width="1px"></line><line x1="51.53200149536133" y1="22.074999928474426" x2="46.53200149536133" y2="22.074999928474426" style="visibility: inherit;" fill="rgb(0, 0, 0)" stroke="rgb(204, 204, 204)" stroke-width="1px"></line><line x1="51.53200149536133" y1="0" x2="46.53200149536133" y2="0" style="visibility: inherit;" fill="rgb(0, 0, 0)" stroke="rgb(204, 204, 204)" stroke-width="1px"></line></g><g transform="translate(41.53200149536133, 0)"><text style="text-anchor: end; visibility: hidden; font-family: Roboto, sans-serif; font-size: 12px; font-weight: 200;" x="0" y="176.5999994277954" dx="0em" dy="0.3em" fill="rgb(33, 33, 33)" stroke="none" stroke-width="1px">-0.1</text><text style="text-anchor: end; visibility: inherit; font-family: Roboto, sans-serif; font-size: 12px; font-weight: 200;" x="0" y="154.52499949932098" dx="0em" dy="0.3em" fill="rgb(33, 33, 33)" stroke="none" stroke-width="1px">0</text><text style="text-anchor: end; visibility: hidden; font-family: Roboto, sans-serif; font-size: 12px; font-weight: 200;" x="0" y="132.44999957084656" dx="0em" dy="0.3em" fill="rgb(33, 33, 33)" stroke="none" stroke-width="1px">0.1</text><text style="text-anchor: end; visibility: inherit; font-family: Roboto, sans-serif; font-size: 12px; font-weight: 200;" x="0" y="110.37499964237212" dx="0em" dy="0.3em" fill="rgb(33, 33, 33)" stroke="none" stroke-width="1px">0.2</text><text style="text-anchor: end; visibility: hidden; font-family: Roboto, sans-serif; font-size: 12px; font-weight: 200;" x="0" y="88.29999971389769" dx="0em" dy="0.3em" fill="rgb(33, 33, 33)" stroke="none" stroke-width="1px">0.3</text><text style="text-anchor: end; visibility: inherit; font-family: Roboto, sans-serif; font-size: 12px; font-weight: 200;" x="0" y="66.22499978542328" dx="0em" dy="0.3em" fill="rgb(33, 33, 33)" stroke="none" stroke-width="1px">0.4</text><text style="text-anchor: end; visibility: hidden; font-family: Roboto, sans-serif; font-size: 12px; font-weight: 200;" x="0" y="44.14999985694885" dx="0em" dy="0.3em" fill="rgb(33, 33, 33)" stroke="none" stroke-width="1px">0.5</text><text style="text-anchor: end; visibility: inherit; font-family: Roboto, sans-serif; font-size: 12px; font-weight: 200;" x="0" y="22.074999928474426" dx="0em" dy="0.3em" fill="rgb(33, 33, 33)" stroke="none" stroke-width="1px">0.6</text><text style="text-anchor: end; visibility: hidden; font-family: Roboto, sans-serif; font-size: 12px; font-weight: 200;" x="0" y="0" dx="0em" dy="0.3em" fill="rgb(33, 33, 33)" stroke="none" stroke-width="1px">0.7</text></g><line x1="51.53200149536133" y1="0" x2="51.53200149536133" y2="176.5999994277954" fill="rgb(0, 0, 0)" stroke="rgb(204, 204, 204)" stroke-width="1px"></line></g></g><g transform="translate(51, 0)" clip-path="url(#clip_0)"><clipPath id="clip_0"><rect width="278" height="176"></rect></clipPath><g><g><g><line x1="0" y1="0" x2="0" y2="176.5999994277954" fill="rgb(0, 0, 0)" stroke="rgb(66, 66, 66)" stroke-width="1px" opacity="0.25"></line><line x1="25.31527259133079" y1="0" x2="25.31527259133079" y2="176.5999994277954" fill="rgb(0, 0, 0)" stroke="rgb(66, 66, 66)" stroke-width="1px" opacity="0.25"></line><line x1="50.63054518266158" y1="0" x2="50.63054518266158" y2="176.5999994277954" fill="rgb(0, 0, 0)" stroke="rgb(66, 66, 66)" stroke-width="1px" opacity="0.25"></line><line x1="75.94581777399236" y1="0" x2="75.94581777399236" y2="176.5999994277954" fill="rgb(0, 0, 0)" stroke="rgb(66, 66, 66)" stroke-width="1px" opacity="0.25"></line><line x1="101.26109036532316" y1="0" x2="101.26109036532316" y2="176.5999994277954" fill="rgb(0, 0, 0)" stroke="rgb(66, 66, 66)" stroke-width="1px" opacity="0.25"></line><line x1="126.57636295665394" y1="0" x2="126.57636295665394" y2="176.5999994277954" fill="rgb(0, 0, 0)" stroke="rgb(66, 66, 66)" stroke-width="1px" opacity="0.25"></line><line x1="151.89163554798472" y1="0" x2="151.89163554798472" y2="176.5999994277954" fill="rgb(0, 0, 0)" stroke="rgb(66, 66, 66)" stroke-width="1px" opacity="0.25"></line><line x1="177.20690813931552" y1="0" x2="177.20690813931552" y2="176.5999994277954" fill="rgb(0, 0, 0)" stroke="rgb(66, 66, 66)" stroke-width="1px" opacity="0.25"></line><line x1="202.5221807306463" y1="0" x2="202.5221807306463" y2="176.5999994277954" fill="rgb(0, 0, 0)" stroke="rgb(66, 66, 66)" stroke-width="1px" opacity="0.25"></line><line x1="227.8374533219771" y1="0" x2="227.8374533219771" y2="176.5999994277954" fill="rgb(0, 0, 0)" stroke="rgb(66, 66, 66)" stroke-width="1px" opacity="0.25"></line><line x1="253.15272591330788" y1="0" x2="253.15272591330788" y2="176.5999994277954" fill="rgb(0, 0, 0)" stroke="rgb(66, 66, 66)" stroke-width="1px" opacity="0.25"></line><line x1="278.4679985046387" y1="0" x2="278.4679985046387" y2="176.5999994277954" fill="rgb(0, 0, 0)" stroke="rgb(66, 66, 66)" stroke-width="1px" opacity="0.25"></line></g><g><line x1="0" y1="176.5999994277954" x2="278.4679985046387" y2="176.5999994277954" fill="rgb(0, 0, 0)" stroke="rgb(66, 66, 66)" stroke-width="1px" opacity="0.25"></line><line x1="0" y1="154.52499949932098" x2="278.4679985046387" y2="154.52499949932098" fill="rgb(0, 0, 0)" stroke="rgb(66, 66, 66)" stroke-width="1px" opacity="0.25"></line><line x1="0" y1="132.44999957084656" x2="278.4679985046387" y2="132.44999957084656" fill="rgb(0, 0, 0)" stroke="rgb(66, 66, 66)" stroke-width="1px" opacity="0.25"></line><line x1="0" y1="110.37499964237212" x2="278.4679985046387" y2="110.37499964237212" fill="rgb(0, 0, 0)" stroke="rgb(66, 66, 66)" stroke-width="1px" opacity="0.25"></line><line x1="0" y1="88.29999971389769" x2="278.4679985046387" y2="88.29999971389769" fill="rgb(0, 0, 0)" stroke="rgb(66, 66, 66)" stroke-width="1px" opacity="0.25"></line><line x1="0" y1="66.22499978542328" x2="278.4679985046387" y2="66.22499978542328" fill="rgb(0, 0, 0)" stroke="rgb(66, 66, 66)" stroke-width="1px" opacity="0.25"></line><line x1="0" y1="44.14999985694885" x2="278.4679985046387" y2="44.14999985694885" fill="rgb(0, 0, 0)" stroke="rgb(66, 66, 66)" stroke-width="1px" opacity="0.25"></line><line x1="0" y1="22.074999928474426" x2="278.4679985046387" y2="22.074999928474426" fill="rgb(0, 0, 0)" stroke="rgb(66, 66, 66)" stroke-width="1px" opacity="0.25"></line><line x1="0" y1="0" x2="278.4679985046387" y2="0" fill="rgb(0, 0, 0)" stroke="rgb(66, 66, 66)" stroke-width="1px" opacity="0.25"></line></g></g></g><g><g><line x1="0" y1="154.52499949932098" x2="278.4679985046387" y2="154.52499949932098" fill="rgb(0, 0, 0)" stroke="rgb(153, 153, 153)" stroke-width="1.5px"></line></g></g><g><g><line x1="0" y1="0" x2="0" y2="176.5999994277954" fill="rgb(0, 0, 0)" stroke="rgb(153, 153, 153)" stroke-width="1.5px"></line></g></g><g><g><g><g><g><path style="fill: none;" stroke="rgb(0, 119, 187)" stroke-width="2px" d="M25.31527259133079,74.176514491007L50.63054518266158,49.94229368478835L75.94581777399236,38.939277486995195L101.26109036532316,33.21182492939238L126.57636295665394,28.13370611492681L151.89163554798472,26.496556145527578L177.20690813931552,23.66180317781813L202.5221807306463,20.271886306882948L227.8374533219771,18.047546530898387L253.15272591330788,17.04992779929421" fill="none"></path></g><g><path style="fill: none;" stroke="rgb(255, 112, 67)" stroke-width="2px" d="M25.31527259133079,73.46476707794936L50.63054518266158,50.14154769774071L75.94581777399236,41.100183869349266L101.26109036532316,36.90433000885699L126.57636295665394,32.234890141946494L151.89163554798472,29.753382625138883L177.20690813931552,27.332755903255205L202.5221807306463,24.324899901610323L227.8374533219771,21.84664234294972L253.15272591330788,20.661973388601083" fill="none"></path></g><g><path style="fill: none;" stroke="rgb(187, 187, 187)" stroke-width="2px" d="M25.31527259133079,85.16528087230944L50.63054518266158,67.9415421534591L75.94581777399236,52.855164067553645L101.26109036532316,43.49952139171124L126.57636295665394,36.06818288203053L151.89163554798472,31.334467527070885L177.20690813931552,26.81598624243017L202.5221807306463,24.204967235577982L227.8374533219771,21.85948428283426L253.15272591330788,20.031073618597276" fill="none"></path></g><g><path style="fill: none;" stroke="rgb(0, 153, 136)" stroke-width="2px" d="M25.31527259133079,82.75338430115669L50.63054518266158,63.69405737892284L75.94581777399236,48.65074452789658L101.26109036532316,39.46266548364187L126.57636295665394,34.641490728669396L151.89163554798472,31.271034133440395L177.20690813931552,26.89191947508762L202.5221807306463,22.922167966005077L227.8374533219771,22.02794263974178L253.15272591330788,19.417805200484125" fill="none"></path></g><g><path style="fill: none;" stroke="rgb(238, 51, 119)" stroke-width="2px" d="M25.31527259133079,140.65450542630268L50.63054518266158,91.00167939532616L75.94581777399236,75.80986845665963L101.26109036532316,74.1005286274484L126.57636295665394,74.08488409207675L151.89163554798472,73.27454584340964L177.20690813931552,69.07904724150023L202.5221807306463,62.892817697294824L227.8374533219771,57.56976124766469L253.15272591330788,53.35001953690563" fill="none"></path></g><g><path style="fill: none;" stroke="rgb(51, 187, 238)" stroke-width="2px" d="M25.31527259133079,122.7787241176207L50.63054518266158,78.83964522864021L75.94581777399236,76.62202905027962L101.26109036532316,78.19603509600478L126.57636295665394,75.93728786838285L151.89163554798472,68.32801743958471L177.20690813931552,60.78298960452249L202.5221807306463,55.664391048197515L227.8374533219771,51.32642059683137L253.15272591330788,47.62435642994246" fill="none"></path></g><g><path style="fill: none;" stroke="rgb(204, 51, 17)" stroke-width="2px" d="M25.31527259133079,153.2096136839374L50.63054518266158,150.63589209972918L75.94581777399236,146.13675883895075L101.26109036532316,139.42839621614834L126.57636295665394,131.5356541089537L151.89163554798472,113.42069331463787L177.20690813931552,94.5877318983196L202.5221807306463,85.99882934839081L227.8374533219771,80.93605902047781L253.15272591330788,78.00187312274025" fill="none"></path></g><g><path style="fill: none;" stroke="rgb(0, 119, 187)" stroke-width="2px" d="M25.31527259133079,152.52128373246737L50.63054518266158,147.13393431968416L75.94581777399236,138.31025107615804L101.26109036532316,120.46113883192635L126.57636295665394,95.65498789102924L151.89163554798472,83.08198533258748L177.20690813931552,78.6002798901366L202.5221807306463,77.44422898829706L227.8374533219771,76.73790913692217L253.15272591330788,76.08479254776361" fill="none"></path></g><g><path style="fill: none;" stroke="rgb(255, 112, 67)" stroke-width="2px" d="M25.31527259133079,73.49239172219893L50.63054518266158,49.726125415973726L75.94581777399236,39.05976277748978L101.26109036532316,32.82323782835748L126.57636295665394,30.23074489871577L151.89163554798472,26.411833552375384L177.20690813931552,23.18057253300553L202.5221807306463,21.4577789296837L227.8374533219771,19.2504389347758L253.15272591330788,18.042717645716394" fill="none"></path></g><g><path style="fill: none;" stroke="rgb(187, 187, 187)" stroke-width="2px" d="M25.31527259133079,77.3058228759554L50.63054518266158,53.70317946259307L75.94581777399236,43.40589101853668L101.26109036532316,37.86146241973911L126.57636295665394,32.04106369067689L151.89163554798472,30.05304981865359L177.20690813931552,27.507701018731453L202.5221807306463,25.05344315100261L227.8374533219771,23.429871954104243L253.15272591330788,21.415937363256617" fill="none"></path></g><g><path style="fill: none;" stroke="rgb(0, 153, 136)" stroke-width="2px" d="M25.31527259133079,77.74972505411591L50.63054518266158,53.55597741089402L75.94581777399236,39.89485728629292L101.26109036532316,31.633134733463436L126.57636295665394,28.504438182741097L151.89163554798472,23.78207794470805L177.20690813931552,20.97441673337387L202.5221807306463,19.59856603053923L227.8374533219771,16.553894713528635L253.15272591330788,16.84489096607622" fill="none"></path></g><g><path style="fill: none;" stroke="rgb(238, 51, 119)" stroke-width="2px" d="M25.31527259133079,74.23013880043266L50.63054518266158,48.85338665511151L75.94581777399236,37.85413356675173L101.26109036532316,31.618398081136917L126.57636295665394,27.694422298343625L151.89163554798472,23.672329358051357L177.20690813931552,21.612579567738607L202.5221807306463,19.10025665829822L227.8374533219771,19.110335475871537L253.15272591330788,16.11736086153138" fill="none"></path></g><g><path style="fill: none;" stroke="rgb(51, 187, 238)" stroke-width="2px" d="M25.31527259133079,106.63380045314861L50.63054518266158,75.28282919124456L75.94581777399236,74.5574964268234L101.26109036532316,72.72187532912665L126.57636295665394,68.16060512183788L151.89163554798472,62.30159504790764L177.20690813931552,56.928808975538146L202.5221807306463,53.06555609496529L227.8374533219771,49.50954925767506L253.15272591330788,47.25982822960313" fill="none"></path></g><g><path style="fill: none;" stroke="rgb(204, 51, 17)" stroke-width="2px" d="M25.31527259133079,93.45916748461407L50.63054518266158,77.13097644341883L75.94581777399236,75.05773998468226L101.26109036532316,67.34727349066694L126.57636295665394,59.774785482921274L151.89163554798472,54.386387769493375L177.20690813931552,49.89642585442206L202.5221807306463,46.144711011145546L227.8374533219771,43.28180051131221L253.15272591330788,40.52528337818623" fill="none"></path></g><g><path style="fill: none;" stroke="rgb(0, 119, 187)" stroke-width="2px" d="M25.31527259133079,150.9537650620793L50.63054518266158,142.48675485689347L75.94581777399236,132.60863535688082L101.26109036532316,113.08787523225115L126.57636295665394,93.96262810630671L151.89163554798472,85.94525766986632L177.20690813931552,80.99536088836678L202.5221807306463,77.98634042803359L227.8374533219771,76.7662179828869L253.15272591330788,76.11753554715159" fill="none"></path></g><g><path style="fill: none;" stroke="rgb(255, 112, 67)" stroke-width="2px" d="M25.31527259133079,147.91403447091568L50.63054518266158,128.7921088482495L75.94581777399236,98.8595716223705L101.26109036532316,84.43935601025015L126.57636295665394,78.81643500122594L151.89163554798472,77.53228706481065L177.20690813931552,76.69421891009162L202.5221807306463,76.22402101793598L227.8374533219771,75.71384337748201L253.15272591330788,75.93732076269609" fill="none"></path></g></g></g></g></g></g><g transform="translate(51, 176)" clip-path="url(#clip_1)"><clipPath id="clip_1"><rect width="278" height="23"></rect></clipPath><g><g><line x1="0" y1="0" x2="0" y2="5" style="visibility: inherit;" fill="rgb(0, 0, 0)" stroke="rgb(204, 204, 204)" stroke-width="1px"></line><line x1="25.31527259133079" y1="0" x2="25.31527259133079" y2="5" style="visibility: inherit;" fill="rgb(0, 0, 0)" stroke="rgb(204, 204, 204)" stroke-width="1px"></line><line x1="50.63054518266158" y1="0" x2="50.63054518266158" y2="5" style="visibility: inherit;" fill="rgb(0, 0, 0)" stroke="rgb(204, 204, 204)" stroke-width="1px"></line><line x1="75.94581777399236" y1="0" x2="75.94581777399236" y2="5" style="visibility: inherit;" fill="rgb(0, 0, 0)" stroke="rgb(204, 204, 204)" stroke-width="1px"></line><line x1="101.26109036532316" y1="0" x2="101.26109036532316" y2="5" style="visibility: inherit;" fill="rgb(0, 0, 0)" stroke="rgb(204, 204, 204)" stroke-width="1px"></line><line x1="126.57636295665394" y1="0" x2="126.57636295665394" y2="5" style="visibility: inherit;" fill="rgb(0, 0, 0)" stroke="rgb(204, 204, 204)" stroke-width="1px"></line><line x1="151.89163554798472" y1="0" x2="151.89163554798472" y2="5" style="visibility: inherit;" fill="rgb(0, 0, 0)" stroke="rgb(204, 204, 204)" stroke-width="1px"></line><line x1="177.20690813931552" y1="0" x2="177.20690813931552" y2="5" style="visibility: inherit;" fill="rgb(0, 0, 0)" stroke="rgb(204, 204, 204)" stroke-width="1px"></line><line x1="202.5221807306463" y1="0" x2="202.5221807306463" y2="5" style="visibility: inherit;" fill="rgb(0, 0, 0)" stroke="rgb(204, 204, 204)" stroke-width="1px"></line><line x1="227.8374533219771" y1="0" x2="227.8374533219771" y2="5" style="visibility: inherit;" fill="rgb(0, 0, 0)" stroke="rgb(204, 204, 204)" stroke-width="1px"></line><line x1="253.15272591330788" y1="0" x2="253.15272591330788" y2="5" style="visibility: inherit;" fill="rgb(0, 0, 0)" stroke="rgb(204, 204, 204)" stroke-width="1px"></line><line x1="278.4679985046387" y1="0" x2="278.4679985046387" y2="5" style="visibility: inherit;" fill="rgb(0, 0, 0)" stroke="rgb(204, 204, 204)" stroke-width="1px"></line></g><g transform="translate(0, 8)"><text style="text-anchor: middle; visibility: hidden; font-family: Roboto, sans-serif; font-size: 12px; font-weight: 200;" x="0" y="0" dx="0em" dy="0.95em" fill="rgb(33, 33, 33)" stroke="none" stroke-width="1px">0</text><text style="text-anchor: middle; visibility: inherit; font-family: Roboto, sans-serif; font-size: 12px; font-weight: 200;" x="25.31527259133079" y="0" dx="0em" dy="0.95em" fill="rgb(33, 33, 33)" stroke="none" stroke-width="1px">1</text><text style="text-anchor: middle; visibility: inherit; font-family: Roboto, sans-serif; font-size: 12px; font-weight: 200;" x="50.63054518266158" y="0" dx="0em" dy="0.95em" fill="rgb(33, 33, 33)" stroke="none" stroke-width="1px">2</text><text style="text-anchor: middle; visibility: inherit; font-family: Roboto, sans-serif; font-size: 12px; font-weight: 200;" x="75.94581777399236" y="0" dx="0em" dy="0.95em" fill="rgb(33, 33, 33)" stroke="none" stroke-width="1px">3</text><text style="text-anchor: middle; visibility: inherit; font-family: Roboto, sans-serif; font-size: 12px; font-weight: 200;" x="101.26109036532316" y="0" dx="0em" dy="0.95em" fill="rgb(33, 33, 33)" stroke="none" stroke-width="1px">4</text><text style="text-anchor: middle; visibility: inherit; font-family: Roboto, sans-serif; font-size: 12px; font-weight: 200;" x="126.57636295665394" y="0" dx="0em" dy="0.95em" fill="rgb(33, 33, 33)" stroke="none" stroke-width="1px">5</text><text style="text-anchor: middle; visibility: inherit; font-family: Roboto, sans-serif; font-size: 12px; font-weight: 200;" x="151.89163554798472" y="0" dx="0em" dy="0.95em" fill="rgb(33, 33, 33)" stroke="none" stroke-width="1px">6</text><text style="text-anchor: middle; visibility: inherit; font-family: Roboto, sans-serif; font-size: 12px; font-weight: 200;" x="177.20690813931552" y="0" dx="0em" dy="0.95em" fill="rgb(33, 33, 33)" stroke="none" stroke-width="1px">7</text><text style="text-anchor: middle; visibility: inherit; font-family: Roboto, sans-serif; font-size: 12px; font-weight: 200;" x="202.5221807306463" y="0" dx="0em" dy="0.95em" fill="rgb(33, 33, 33)" stroke="none" stroke-width="1px">8</text><text style="text-anchor: middle; visibility: inherit; font-family: Roboto, sans-serif; font-size: 12px; font-weight: 200;" x="227.8374533219771" y="0" dx="0em" dy="0.95em" fill="rgb(33, 33, 33)" stroke="none" stroke-width="1px">9</text><text style="text-anchor: middle; visibility: inherit; font-family: Roboto, sans-serif; font-size: 12px; font-weight: 200;" x="253.15272591330788" y="0" dx="0em" dy="0.95em" fill="rgb(33, 33, 33)" stroke="none" stroke-width="1px">10</text><text style="text-anchor: middle; visibility: hidden; font-family: Roboto, sans-serif; font-size: 12px; font-weight: 200;" x="278.4679985046387" y="0" dx="0em" dy="0.95em" fill="rgb(33, 33, 33)" stroke="none" stroke-width="1px">11</text></g><line x1="0" y1="0" x2="278.4679985046387" y2="0" fill="rgb(0, 0, 0)" stroke="rgb(204, 204, 204)" stroke-width="1px"></line></g></g></g></g></svg>