<svg viewBox="0 0 330 200" xmlns="http://www.w3.org/2000/svg"><g><g><g><g><g><line x1="41.149001121520996" y1="176.5999994277954" x2="36.149001121520996" y2="176.5999994277954" style="visibility: inherit;" fill="rgb(0, 0, 0)" stroke="rgb(204, 204, 204)" stroke-width="1px"></line><line x1="41.149001121520996" y1="163.01538408719577" x2="36.149001121520996" y2="163.01538408719577" style="visibility: inherit;" fill="rgb(0, 0, 0)" stroke="rgb(204, 204, 204)" stroke-width="1px"></line><line x1="41.149001121520996" y1="149.4307687465961" x2="36.149001121520996" y2="149.4307687465961" style="visibility: inherit;" fill="rgb(0, 0, 0)" stroke="rgb(204, 204, 204)" stroke-width="1px"></line><line x1="41.149001121520996" y1="135.8461534059965" x2="36.149001121520996" y2="135.8461534059965" style="visibility: inherit;" fill="rgb(0, 0, 0)" stroke="rgb(204, 204, 204)" stroke-width="1px"></line><line x1="41.149001121520996" y1="122.26153806539682" x2="36.149001121520996" y2="122.26153806539682" style="visibility: inherit;" fill="rgb(0, 0, 0)" stroke="rgb(204, 204, 204)" stroke-width="1px"></line><line x1="41.149001121520996" y1="108.67692272479718" x2="36.149001121520996" y2="108.67692272479718" style="visibility: inherit;" fill="rgb(0, 0, 0)" stroke="rgb(204, 204, 204)" stroke-width="1px"></line><line x1="41.149001121520996" y1="95.09230738419754" x2="36.149001121520996" y2="95.09230738419754" style="visibility: inherit;" fill="rgb(0, 0, 0)" stroke="rgb(204, 204, 204)" stroke-width="1px"></line><line x1="41.149001121520996" y1="81.50769204359788" x2="36.149001121520996" y2="81.50769204359788" style="visibility: inherit;" fill="rgb(0, 0, 0)" stroke="rgb(204, 204, 204)" stroke-width="1px"></line><line x1="41.149001121520996" y1="67.92307670299823" x2="36.149001121520996" y2="67.92307670299823" style="visibility: inherit;" fill="rgb(0, 0, 0)" stroke="rgb(204, 204, 204)" stroke-width="1px"></line><line x1="41.149001121520996" y1="54.33846136239859" x2="36.149001121520996" y2="54.33846136239859" style="visibility: inherit;" fill="rgb(0, 0, 0)" stroke="rgb(204, 204, 204)" stroke-width="1px"></line><line x1="41.149001121520996" y1="40.75384602179895" x2="36.149001121520996" y2="40.75384602179895" style="visibility: inherit;" fill="rgb(0, 0, 0)" stroke="rgb(204, 204, 204)" stroke-width="1px"></line><line x1="41.149001121520996" y1="27.169230681199295" x2="36.149001121520996" y2="27.169230681199295" style="visibility: inherit;" fill="rgb(0, 0, 0)" stroke="rgb(204, 204, 204)" stroke-width="1px"></line><line x1="41.149001121520996" y1="13.584615340599658" x2="36.149001121520996" y2="13.584615340599658" style="visibility: inherit;" fill="rgb(0, 0, 0)" stroke="rgb(204, 204, 204)" stroke-width="1px"></line><line x1="41.149001121520996" y1="0" x2="36.149001121520996" y2="0" style="visibility: inherit;" fill="rgb(0, 0, 0)" stroke="rgb(204, 204, 204)" stroke-width="1px"></line></g><g transform="translate(31.149001121520996, 0)"><text style="text-anchor: end; visibility: hidden; font-family: Roboto, sans-serif; font-size: 12px; font-weight: 200;" x="0" y="176.5999994277954" dx="0em" dy="0.3em" fill="rgb(33, 33, 33)" stroke="none" stroke-width="1px">0</text><text style="text-anchor: end; visibility: inherit; font-family: Roboto, sans-serif; font-size: 12px; font-weight: 200;" x="0" y="163.01538408719577" dx="0em" dy="0.3em" fill="rgb(33, 33, 33)" stroke="none" stroke-width="1px">0.1</text><text style="text-anchor: end; visibility: hidden; font-family: Roboto, sans-serif; font-size: 12px; font-weight: 200;" x="0" y="149.4307687465961" dx="0em" dy="0.3em" fill="rgb(33, 33, 33)" stroke="none" stroke-width="1px">0.2</text><text style="text-anchor: end; visibility: inherit; font-family: Roboto, sans-serif; font-size: 12px; font-weight: 200;" x="0" y="135.8461534059965" dx="0em" dy="0.3em" fill="rgb(33, 33, 33)" stroke="none" stroke-width="1px">0.3</text><text style="text-anchor: end; visibility: hidden; font-family: Roboto, sans-serif; font-size: 12px; font-weight: 200;" x="0" y="122.26153806539682" dx="0em" dy="0.3em" fill="rgb(33, 33, 33)" stroke="none" stroke-width="1px">0.4</text><text style="text-anchor: end; visibility: inherit; font-family: Roboto, sans-serif; font-size: 12px; font-weight: 200;" x="0" y="108.67692272479718" dx="0em" dy="0.3em" fill="rgb(33, 33, 33)" stroke="none" stroke-width="1px">0.5</text><text style="text-anchor: end; visibility: hidden; font-family: Roboto, sans-serif; font-size: 12px; font-weight: 200;" x="0" y="95.09230738419754" dx="0em" dy="0.3em" fill="rgb(33, 33, 33)" stroke="none" stroke-width="1px">0.6</text><text style="text-anchor: end; visibility: inherit; font-family: Roboto, sans-serif; font-size: 12px; font-weight: 200;" x="0" y="81.50769204359788" dx="0em" dy="0.3em" fill="rgb(33, 33, 33)" stroke="none" stroke-width="1px">0.7</text><text style="text-anchor: end; visibility: hidden; font-family: Roboto, sans-serif; font-size: 12px; font-weight: 200;" x="0" y="67.92307670299823" dx="0em" dy="0.3em" fill="rgb(33, 33, 33)" stroke="none" stroke-width="1px">0.8</text><text style="text-anchor: end; visibility: inherit; font-family: Roboto, sans-serif; font-size: 12px; font-weight: 200;" x="0" y="54.33846136239859" dx="0em" dy="0.3em" fill="rgb(33, 33, 33)" stroke="none" stroke-width="1px">0.9</text><text style="text-anchor: end; visibility: hidden; font-family: Roboto, sans-serif; font-size: 12px; font-weight: 200;" x="0" y="40.75384602179895" dx="0em" dy="0.3em" fill="rgb(33, 33, 33)" stroke="none" stroke-width="1px">1</text><text style="text-anchor: end; visibility: inherit; font-family: Roboto, sans-serif; font-size: 12px; font-weight: 200;" x="0" y="27.169230681199295" dx="0em" dy="0.3em" fill="rgb(33, 33, 33)" stroke="none" stroke-width="1px">1.1</text><text style="text-anchor: end; visibility: hidden; font-family: Roboto, sans-serif; font-size: 12px; font-weight: 200;" x="0" y="13.584615340599658" dx="0em" dy="0.3em" fill="rgb(33, 33, 33)" stroke="none" stroke-width="1px">1.2</text><text style="text-anchor: end; visibility: hidden; font-family: Roboto, sans-serif; font-size: 12px; font-weight: 200;" x="0" y="0" dx="0em" dy="0.3em" fill="rgb(33, 33, 33)" stroke="none" stroke-width="1px">1.3</text></g><line x1="41.149001121520996" y1="0" x2="41.149001121520996" y2="176.5999994277954" fill="rgb(0, 0, 0)" stroke="rgb(204, 204, 204)" stroke-width="1px"></line></g></g><g transform="translate(41, 0)" clip-path="url(#clip_0)"><clipPath id="clip_0"><rect width="288" height="176"></rect></clipPath><g><g><g><line x1="0" y1="0" x2="0" y2="176.5999994277954" fill="rgb(0, 0, 0)" stroke="rgb(66, 66, 66)" stroke-width="1px" opacity="0.25"></line><line x1="26.259181716225363" y1="0" x2="26.259181716225363" y2="176.5999994277954" fill="rgb(0, 0, 0)" stroke="rgb(66, 66, 66)" stroke-width="1px" opacity="0.25"></line><line x1="52.51836343245073" y1="0" x2="52.51836343245073" y2="176.5999994277954" fill="rgb(0, 0, 0)" stroke="rgb(66, 66, 66)" stroke-width="1px" opacity="0.25"></line><line x1="78.77754514867608" y1="0" x2="78.77754514867608" y2="176.5999994277954" fill="rgb(0, 0, 0)" stroke="rgb(66, 66, 66)" stroke-width="1px" opacity="0.25"></line><line x1="105.03672686490145" y1="0" x2="105.03672686490145" y2="176.5999994277954" fill="rgb(0, 0, 0)" stroke="rgb(66, 66, 66)" stroke-width="1px" opacity="0.25"></line><line x1="131.2959085811268" y1="0" x2="131.2959085811268" y2="176.5999994277954" fill="rgb(0, 0, 0)" stroke="rgb(66, 66, 66)" stroke-width="1px" opacity="0.25"></line><line x1="157.55509029735217" y1="0" x2="157.55509029735217" y2="176.5999994277954" fill="rgb(0, 0, 0)" stroke="rgb(66, 66, 66)" stroke-width="1px" opacity="0.25"></line><line x1="183.81427201357755" y1="0" x2="183.81427201357755" y2="176.5999994277954" fill="rgb(0, 0, 0)" stroke="rgb(66, 66, 66)" stroke-width="1px" opacity="0.25"></line><line x1="210.0734537298029" y1="0" x2="210.0734537298029" y2="176.5999994277954" fill="rgb(0, 0, 0)" stroke="rgb(66, 66, 66)" stroke-width="1px" opacity="0.25"></line><line x1="236.3326354460283" y1="0" x2="236.3326354460283" y2="176.5999994277954" fill="rgb(0, 0, 0)" stroke="rgb(66, 66, 66)" stroke-width="1px" opacity="0.25"></line><line x1="262.5918171622536" y1="0" x2="262.5918171622536" y2="176.5999994277954" fill="rgb(0, 0, 0)" stroke="rgb(66, 66, 66)" stroke-width="1px" opacity="0.25"></line><line x1="288.850998878479" y1="0" x2="288.850998878479" y2="176.5999994277954" fill="rgb(0, 0, 0)" stroke="rgb(66, 66, 66)" stroke-width="1px" opacity="0.25"></line></g><g><line x1="0" y1="176.5999994277954" x2="288.850998878479" y2="176.5999994277954" fill="rgb(0, 0, 0)" stroke="rgb(66, 66, 66)" stroke-width="1px" opacity="0.25"></line><line x1="0" y1="163.01538408719577" x2="288.850998878479" y2="163.01538408719577" fill="rgb(0, 0, 0)" stroke="rgb(66, 66, 66)" stroke-width="1px" opacity="0.25"></line><line x1="0" y1="149.4307687465961" x2="288.850998878479" y2="149.4307687465961" fill="rgb(0, 0, 0)" stroke="rgb(66, 66, 66)" stroke-width="1px" opacity="0.25"></line><line x1="0" y1="135.8461534059965" x2="288.850998878479" y2="135.8461534059965" fill="rgb(0, 0, 0)" stroke="rgb(66, 66, 66)" stroke-width="1px" opacity="0.25"></line><line x1="0" y1="122.26153806539682" x2="288.850998878479" y2="122.26153806539682" fill="rgb(0, 0, 0)" stroke="rgb(66, 66, 66)" stroke-width="1px" opacity="0.25"></line><line x1="0" y1="108.67692272479718" x2="288.850998878479" y2="108.67692272479718" fill="rgb(0, 0, 0)" stroke="rgb(66, 66, 66)" stroke-width="1px" opacity="0.25"></line><line x1="0" y1="95.09230738419754" x2="288.850998878479" y2="95.09230738419754" fill="rgb(0, 0, 0)" stroke="rgb(66, 66, 66)" stroke-width="1px" opacity="0.25"></line><line x1="0" y1="81.50769204359788" x2="288.850998878479" y2="81.50769204359788" fill="rgb(0, 0, 0)" stroke="rgb(66, 66, 66)" stroke-width="1px" opacity="0.25"></line><line x1="0" y1="67.92307670299823" x2="288.850998878479" y2="67.92307670299823" fill="rgb(0, 0, 0)" stroke="rgb(66, 66, 66)" stroke-width="1px" opacity="0.25"></line><line x1="0" y1="54.33846136239859" x2="288.850998878479" y2="54.33846136239859" fill="rgb(0, 0, 0)" stroke="rgb(66, 66, 66)" stroke-width="1px" opacity="0.25"></line><line x1="0" y1="40.75384602179895" x2="288.850998878479" y2="40.75384602179895" fill="rgb(0, 0, 0)" stroke="rgb(66, 66, 66)" stroke-width="1px" opacity="0.25"></line><line x1="0" y1="27.169230681199295" x2="288.850998878479" y2="27.169230681199295" fill="rgb(0, 0, 0)" stroke="rgb(66, 66, 66)" stroke-width="1px" opacity="0.25"></line><line x1="0" y1="13.584615340599658" x2="288.850998878479" y2="13.584615340599658" fill="rgb(0, 0, 0)" stroke="rgb(66, 66, 66)" stroke-width="1px" opacity="0.25"></line><line x1="0" y1="0" x2="288.850998878479" y2="0" fill="rgb(0, 0, 0)" stroke="rgb(66, 66, 66)" stroke-width="1px" opacity="0.25"></line></g></g></g><g><g><line x1="0" y1="176.5999994277954" x2="288.850998878479" y2="176.5999994277954" fill="rgb(0, 0, 0)" stroke="rgb(153, 153, 153)" stroke-width="1.5px"></line></g></g><g><g><line x1="0" y1="0" x2="0" y2="176.5999994277954" fill="rgb(0, 0, 0)" stroke="rgb(153, 153, 153)" stroke-width="1.5px"></line></g></g><g><g><g><g><g><path style="fill: none;" stroke="rgb(0, 119, 187)" stroke-width="2px" d="M26.259181716225363,108.20069403986079L52.51836343245073,124.40702379613576L78.77754514867608,134.21220116869617L105.03672686490145,143.5606455566714L131.2959085811268,150.51214915255312L157.55509029735217,155.20880121963194L183.81427201357755,159.87907913243023L210.0734537298029,162.68157644265384L236.3326354460283,164.44207705026307L262.5918171622536,165.58754914096824" fill="none"></path></g><g><path style="fill: none;" stroke="rgb(255, 112, 67)" stroke-width="2px" d="M26.259181716225363,107.46145659620463L52.51836343245073,121.51144570080169L78.77754514867608,138.49861965237008L105.03672686490145,149.15447837754053L131.2959085811268,155.108508988929L157.55509029735217,159.49721765328474L183.81427201357755,162.16324910958085L210.0734537298029,164.36805877270191L236.3326354460283,165.64802305854082L262.5918171622536,167.27472275766044" fill="none"></path></g><g><path style="fill: none;" stroke="rgb(187, 187, 187)" stroke-width="2px" d="M26.259181716225363,92.15207480319559L52.51836343245073,134.39093570905638L78.77754514867608,149.07884574829936L105.03672686490145,156.37198057218137L131.2959085811268,159.95446176489088L157.55509029735217,161.78007691856973L183.81427201357755,163.9213965086283L210.0734537298029,165.53131605947033L236.3326354460283,165.87177422565424L262.5918171622536,167.13265879768775" fill="none"></path></g><g><path style="fill: none;" stroke="rgb(0, 153, 136)" stroke-width="2px" d="M26.259181716225363,103.77159318312547L52.51836343245073,139.0367260829544L78.77754514867608,151.05940526287864L105.03672686490145,157.1473369838955L131.2959085811268,159.58593918279286L157.55509029735217,161.852594203315L183.81427201357755,163.69829411858504L210.0734537298029,165.40154242705265L236.3326354460283,165.91958231443468L262.5918171622536,167.23157351576592" fill="none"></path></g><g><path style="fill: none;" stroke="rgb(238, 51, 119)" stroke-width="2px" d="M26.259181716225363,49.84917018767733L52.51836343245073,81.75404676577635L78.77754514867608,101.77184565654026L105.03672686490145,121.37510737559623L131.2959085811268,136.4652409799397L157.55509029735217,146.58852356767912L183.81427201357755,154.11954196777035L210.0734537298029,158.28383854234997L236.3326354460283,161.4232930516972L262.5918171622536,163.38202592428325" fill="none"></path></g><g><path style="fill: none;" stroke="rgb(51, 187, 238)" stroke-width="2px" d="M26.259181716225363,59.63045313110831L52.51836343245073,97.4095212677922L78.77754514867608,124.12008012297797L105.03672686490145,142.10188499037665L131.2959085811268,152.173036670511L157.55509029735217,157.6693262131304L183.81427201357755,161.1754652715657L210.0734537298029,163.4913787670485L236.3326354460283,165.03270102314949L262.5918171622536,166.50711624614303" fill="none"></path></g><g><path style="fill: none;" stroke="rgb(204, 51, 17)" stroke-width="2px" d="M26.259181716225363,12.225857130198353L52.51836343245073,37.53966879052108L78.77754514867608,53.914308120194505L105.03672686490145,63.58449127979462L131.2959085811268,70.13370248555124L157.55509029735217,75.63308915427774L183.81427201357755,80.56772196230641L210.0734537298029,85.18806731975604L236.3326354460283,89.24803932689721L262.5918171622536,93.42613127037863" fill="none"></path></g><g><path style="fill: none;" stroke="rgb(0, 119, 187)" stroke-width="2px" d="M26.259181716225363,20.23278235702269L52.51836343245073,48.80673826799561L78.77754514867608,62.48068363229148L105.03672686490145,71.27374448424186L131.2959085811268,79.27109898411567L157.55509029735217,86.92420690505435L183.81427201357755,94.48759128509734L210.0734537298029,101.02391196859912L236.3326354460283,107.40447757289598L262.5918171622536,113.96664812593207" fill="none"></path></g><g><path style="fill: none;" stroke="rgb(255, 112, 67)" stroke-width="2px" d="M26.259181716225363,109.43693318029054L52.51836343245073,123.49700717525718L78.77754514867608,134.10897172885507L105.03672686490145,143.92753152016968L131.2959085811268,151.73346743250224L157.55509029735217,156.91871037349523L183.81427201357755,160.53457878806563L210.0734537298029,162.70370166379791L236.3326354460283,164.20243843592647L262.5918171622536,165.34512513740071" fill="none"></path></g><g><path style="fill: none;" stroke="rgb(187, 187, 187)" stroke-width="2px" d="M26.259181716225363,106.30539051237436L52.51836343245073,121.60032714727872L78.77754514867608,133.32676722719305L105.03672686490145,142.84462036469492L131.2959085811268,149.52793915515375L157.55509029735217,154.03114229646556L183.81427201357755,157.32978402705336L210.0734537298029,160.1381152702447L236.3326354460283,162.12789328958976L262.5918171622536,163.8295130765194" fill="none"></path></g><g><path style="fill: none;" stroke="rgb(0, 153, 136)" stroke-width="2px" d="M26.259181716225363,103.58425146615917L52.51836343245073,131.39098243964813L78.77754514867608,143.6422639387875L105.03672686490145,152.1631643280115L131.2959085811268,157.09702589091154L157.55509029735217,160.09216039646492L183.81427201357755,162.09119335735355L210.0734537298029,164.00886906636643L236.3326354460283,164.99095560933029L262.5918171622536,165.9285285555002" fill="none"></path></g><g><path style="fill: none;" stroke="rgb(238, 51, 119)" stroke-width="2px" d="M26.259181716225363,109.3568734825551L52.51836343245073,134.07119893594123L78.77754514867608,147.13806709793994L105.03672686490145,154.1847860668275L131.2959085811268,158.44282232491489L157.55509029735217,160.93946831073674L183.81427201357755,162.58107470047895L210.0734537298029,163.88646477224472L236.3326354460283,165.27150766439456L262.5918171622536,166.36881843200183" fill="none"></path></g><g><path style="fill: none;" stroke="rgb(51, 187, 238)" stroke-width="2px" d="M26.259181716225363,67.53935532877614L52.51836343245073,109.3506144538472L78.77754514867608,133.0481270908269L105.03672686490145,145.97150114932703L131.2959085811268,153.36081489655928L157.55509029735217,157.89007843101007L183.81427201357755,160.88187694713568L210.0734537298029,162.93997696112345L236.3326354460283,164.87761698793443L262.5918171622536,165.9259243380252" fill="none"></path></g><g><path style="fill: none;" stroke="rgb(204, 51, 17)" stroke-width="2px" d="M26.259181716225363,81.85297666584526L52.51836343245073,129.15607194959088L78.77754514867608,147.0957478048715L105.03672686490145,155.7389603841402L131.2959085811268,159.8353934601969L157.55509029735217,162.47683414005584L183.81427201357755,164.32694189329857L210.0734537298029,165.8369437025421L236.3326354460283,166.6963719060729L262.5918171622536,167.59476215845729" fill="none"></path></g><g><path style="fill: none;" stroke="rgb(0, 119, 187)" stroke-width="2px" d="M26.259181716225363,29.01718744999667L52.51836343245073,58.55002170078464L78.77754514867608,69.11671963084879L105.03672686490145,75.52718768406976L131.2959085811268,80.85717572459674L157.55509029735217,85.29941811250016L183.81427201357755,89.6498155293378L210.0734537298029,93.796717591082L236.3326354460283,97.6535505138453L262.5918171622536,101.72738469064745" fill="none"></path></g><g><path style="fill: none;" stroke="rgb(255, 112, 67)" stroke-width="2px" d="M26.259181716225363,39.336390591592476L52.51836343245073,67.22608810797357L78.77754514867608,78.5055703810616L105.03672686490145,87.17567735082616L131.2959085811268,94.8134899221798L157.55509029735217,101.40233624504538L183.81427201357755,107.62887144428326L210.0734537298029,113.90675011187415L236.3326354460283,120.14974663758446L262.5918171622536,125.81594087476074" fill="none"></path></g></g></g></g></g></g><g transform="translate(41, 176)" clip-path="url(#clip_1)"><clipPath id="clip_1"><rect width="288" height="23"></rect></clipPath><g><g><line x1="0" y1="0" x2="0" y2="5" style="visibility: inherit;" fill="rgb(0, 0, 0)" stroke="rgb(204, 204, 204)" stroke-width="1px"></line><line x1="26.259181716225363" y1="0" x2="26.259181716225363" y2="5" style="visibility: inherit;" fill="rgb(0, 0, 0)" stroke="rgb(204, 204, 204)" stroke-width="1px"></line><line x1="52.51836343245073" y1="0" x2="52.51836343245073" y2="5" style="visibility: inherit;" fill="rgb(0, 0, 0)" stroke="rgb(204, 204, 204)" stroke-width="1px"></line><line x1="78.77754514867608" y1="0" x2="78.77754514867608" y2="5" style="visibility: inherit;" fill="rgb(0, 0, 0)" stroke="rgb(204, 204, 204)" stroke-width="1px"></line><line x1="105.03672686490145" y1="0" x2="105.03672686490145" y2="5" style="visibility: inherit;" fill="rgb(0, 0, 0)" stroke="rgb(204, 204, 204)" stroke-width="1px"></line><line x1="131.2959085811268" y1="0" x2="131.2959085811268" y2="5" style="visibility: inherit;" fill="rgb(0, 0, 0)" stroke="rgb(204, 204, 204)" stroke-width="1px"></line><line x1="157.55509029735217" y1="0" x2="157.55509029735217" y2="5" style="visibility: inherit;" fill="rgb(0, 0, 0)" stroke="rgb(204, 204, 204)" stroke-width="1px"></line><line x1="183.81427201357755" y1="0" x2="183.81427201357755" y2="5" style="visibility: inherit;" fill="rgb(0, 0, 0)" stroke="rgb(204, 204, 204)" stroke-width="1px"></line><line x1="210.0734537298029" y1="0" x2="210.0734537298029" y2="5" style="visibility: inherit;" fill="rgb(0, 0, 0)" stroke="rgb(204, 204, 204)" stroke-width="1px"></line><line x1="236.3326354460283" y1="0" x2="236.3326354460283" y2="5" style="visibility: inherit;" fill="rgb(0, 0, 0)" stroke="rgb(204, 204, 204)" stroke-width="1px"></line><line x1="262.5918171622536" y1="0" x2="262.5918171622536" y2="5" style="visibility: inherit;" fill="rgb(0, 0, 0)" stroke="rgb(204, 204, 204)" stroke-width="1px"></line><line x1="288.850998878479" y1="0" x2="288.850998878479" y2="5" style="visibility: inherit;" fill="rgb(0, 0, 0)" stroke="rgb(204, 204, 204)" stroke-width="1px"></line></g><g transform="translate(0, 8)"><text style="text-anchor: middle; visibility: hidden; font-family: Roboto, sans-serif; font-size: 12px; font-weight: 200;" x="0" y="0" dx="0em" dy="0.95em" fill="rgb(33, 33, 33)" stroke="none" stroke-width="1px">0</text><text style="text-anchor: middle; visibility: inherit; font-family: Roboto, sans-serif; font-size: 12px; font-weight: 200;" x="26.259181716225363" y="0" dx="0em" dy="0.95em" fill="rgb(33, 33, 33)" stroke="none" stroke-width="1px">1</text><text style="text-anchor: middle; visibility: inherit; font-family: Roboto, sans-serif; font-size: 12px; font-weight: 200;" x="52.51836343245073" y="0" dx="0em" dy="0.95em" fill="rgb(33, 33, 33)" stroke="none" stroke-width="1px">2</text><text style="text-anchor: middle; visibility: inherit; font-family: Roboto, sans-serif; font-size: 12px; font-weight: 200;" x="78.77754514867608" y="0" dx="0em" dy="0.95em" fill="rgb(33, 33, 33)" stroke="none" stroke-width="1px">3</text><text style="text-anchor: middle; visibility: inherit; font-family: Roboto, sans-serif; font-size: 12px; font-weight: 200;" x="105.03672686490145" y="0" dx="0em" dy="0.95em" fill="rgb(33, 33, 33)" stroke="none" stroke-width="1px">4</text><text style="text-anchor: middle; visibility: inherit; font-family: Roboto, sans-serif; font-size: 12px; font-weight: 200;" x="131.2959085811268" y="0" dx="0em" dy="0.95em" fill="rgb(33, 33, 33)" stroke="none" stroke-width="1px">5</text><text style="text-anchor: middle; visibility: inherit; font-family: Roboto, sans-serif; font-size: 12px; font-weight: 200;" x="157.55509029735217" y="0" dx="0em" dy="0.95em" fill="rgb(33, 33, 33)" stroke="none" stroke-width="1px">6</text><text style="text-anchor: middle; visibility: inherit; font-family: Roboto, sans-serif; font-size: 12px; font-weight: 200;" x="183.81427201357755" y="0" dx="0em" dy="0.95em" fill="rgb(33, 33, 33)" stroke="none" stroke-width="1px">7</text><text style="text-anchor: middle; visibility: inherit; font-family: Roboto, sans-serif; font-size: 12px; font-weight: 200;" x="210.0734537298029" y="0" dx="0em" dy="0.95em" fill="rgb(33, 33, 33)" stroke="none" stroke-width="1px">8</text><text style="text-anchor: middle; visibility: inherit; font-family: Roboto, sans-serif; font-size: 12px; font-weight: 200;" x="236.3326354460283" y="0" dx="0em" dy="0.95em" fill="rgb(33, 33, 33)" stroke="none" stroke-width="1px">9</text><text style="text-anchor: middle; visibility: inherit; font-family: Roboto, sans-serif; font-size: 12px; font-weight: 200;" x="262.5918171622536" y="0" dx="0em" dy="0.95em" fill="rgb(33, 33, 33)" stroke="none" stroke-width="1px">10</text><text style="text-anchor: middle; visibility: hidden; font-family: Roboto, sans-serif; font-size: 12px; font-weight: 200;" x="288.850998878479" y="0" dx="0em" dy="0.95em" fill="rgb(33, 33, 33)" stroke="none" stroke-width="1px">11</text></g><line x1="0" y1="0" x2="288.850998878479" y2="0" fill="rgb(0, 0, 0)" stroke="rgb(204, 204, 204)" stroke-width="1px"></line></g></g></g></g></svg>